PathFileType	4	(X/Y/Z)	D:\TRACE\v60_Jaco2_6-2-23\JustBodyDRS_Motion1_2-platform.trc
DataRate	CameraRate	NumFrames	NumMarkers	Units	OrigDataRate	OrigDataStartFrame	OrigNumFrames
100.00	100.00	      69	5	mm	100.00	1	      6954
Frame#	Time	Left_Front			Right_Front			Left_Aft			Right_Aft			Post			
		X1	Y1	Z1	X2	Y2	Z2	X3	Y3	Z3	X4	Y4	Z4	X5	Y5	Z5	

1	0.000	-800.52667	8.87486	-638.92670	769.55591	10.07976	-644.31451	-708.65533	8.00846	496.04193	733.41534	6.99539	505.80215	-14.36060	1308.03748	-961.76135	
2	0.010	-800.52820	8.87200	-638.98083	769.45117	10.12788	-644.34570	-708.68872	8.06294	496.01886	733.36572	6.99911	505.82245	-14.39294	1308.06714	-961.77423	
3	0.020	-800.53558	8.84032	-638.97382	769.44281	10.10210	-644.34460	-708.70239	8.04381	496.06360	733.37354	6.99000	505.83948	-14.35785	1308.03845	-961.76727	
4	0.030	-800.52563	8.79129	-638.92126	769.51740	10.05386	-644.35455	-708.68048	7.99102	496.07886	733.58374	6.92825	505.68658	-14.33173	1308.01123	-961.76672	
5	0.040	-800.56226	8.81481	-638.94531	769.53052	10.03380	-644.32880	-708.72754	8.00939	496.07581	733.34839	6.96163	505.85315	-14.34341	1307.99414	-961.73792	
6	0.050	-800.53845	8.77535	-638.96179	769.46655	10.06613	-644.33472	-708.66949	7.99967	496.06720	733.35199	6.93054	505.82590	-14.33771	1308.01563	-961.77234	
7	0.060	-800.51172	8.76729	-638.96021	769.54041	10.02814	-644.29633	-708.69379	7.99559	496.01270	733.43878	6.94520	505.80463	-14.31396	1307.98206	-961.74487	
8	0.070	-800.57275	8.81266	-638.96912	769.56830	10.01199	-644.30884	-708.64758	7.99750	496.07471	733.38434	6.96152	505.82712	-14.33646	1307.97620	-961.75714	
9	0.080	-800.53320	8.79569	-638.94519	769.56830	10.02090	-644.29810	-708.69165	8.02380	496.04636	733.35236	6.93232	505.83832	-14.31406	1307.99744	-961.77283	
10	0.090	-800.53613	8.73765	-638.97906	769.45850	10.05594	-644.34644	-708.72235	8.02660	496.05368	733.62653	6.91322	505.72168	-14.27354	1307.98572	-961.78760	
11	0.100	-800.53809	8.80919	-638.95844	769.55499	10.06216	-644.30914	-708.68945	8.03753	496.10281	733.30304	6.93277	505.81952	-14.34238	1308.03381	-961.80627	
12	0.110	-800.52509	8.84791	-638.94702	769.57086	10.03597	-644.30902	-708.70996	8.03874	496.00171	733.62323	6.94998	505.68991	-14.29234	1308.04260	-961.79083	
13	0.120	-800.54041	8.90966	-638.91077	769.37366	10.08916	-644.38013	-708.68201	8.02844	496.05496	733.42749	6.97064	505.81860	-14.29432	1308.03491	-961.78198	
14	0.130	-800.48596	8.77282	-638.95703	769.54193	10.03081	-644.32892	-708.71851	8.01994	496.05569	733.38049	6.95989	505.80801	-14.37339	1308.03088	-961.77539	
15	0.140	-800.50232	8.82533	-638.93433	769.61194	10.04977	-644.29297	-708.69983	8.04454	496.04904	733.39929	6.97094	505.78348	-14.29671	1308.00110	-961.75140	
16	0.150	-800.47296	8.78665	-638.97876	769.42389	10.09773	-644.37872	-708.67670	7.99823	496.04703	733.61639	6.96081	505.69354	-14.41376	1308.01685	-961.72864	
17	0.160	-800.49652	8.77096	-639.04028	769.54333	10.05126	-644.30139	-708.67792	8.00791	496.02905	733.45209	7.04931	505.78943	-14.35036	1308.06140	-961.75189	
18	0.170	-800.50800	8.85560	-639.00146	769.57227	10.06963	-644.30774	-708.64746	8.02500	496.09604	733.62177	6.96321	505.65317	-14.36089	1308.07031	-961.73047	
19	0.180	-800.51062	8.81988	-638.98712	769.53302	10.04646	-644.32410	-708.69061	8.03047	496.05283	733.36768	6.98646	505.79636	-14.38666	1308.04834	-961.74744	
20	0.190	-800.54224	8.86179	-638.96881	769.56708	10.04940	-644.32056	-708.64185	7.97557	496.07614	733.36694	6.96421	505.80899	-14.31790	1308.00793	-961.76691	
21	0.200	-800.51367	8.75894	-638.98700	769.42163	10.06936	-644.36688	-708.66663	8.00052	496.07544	733.36670	6.96807	505.79877	-14.29940	1307.95618	-961.76263	
22	0.210	-800.51971	8.81408	-638.95050	769.49261	10.11758	-644.29761	-708.63904	7.98660	496.05750	733.63660	6.92631	505.65927	-14.34674	1308.03027	-961.77155	
23	0.220	-800.53760	8.83860	-638.95917	769.46063	10.07458	-644.33655	-708.66553	8.00718	496.02118	733.61212	6.95601	505.68979	-14.39901	1308.01782	-961.73981	
24	0.230	-800.50519	8.80120	-638.98846	769.59741	10.04927	-644.26276	-708.66382	8.03429	496.02585	733.44550	6.99328	505.82361	-14.30450	1307.98413	-961.75385	
25	0.240	-800.59558	8.86556	-638.90259	769.57971	10.02909	-644.26727	-708.65491	7.96943	496.10165	733.34821	6.94121	505.83957	-14.25292	1307.94019	-961.81232	
26	0.250	-800.57013	8.79026	-638.90222	769.56653	10.01189	-644.30652	-708.67810	7.98657	496.11987	733.29498	6.90454	505.82974	-14.29671	1307.93103	-961.72937	
27	0.260	-800.52490	8.76539	-638.92249	769.48187	10.07193	-644.35004	-708.64600	7.97168	496.06290	733.35382	6.95117	505.82629	-14.24775	1307.93933	-961.76276	
28	0.270	-800.50092	8.77943	-638.97546	769.61737	10.04429	-644.28741	-708.67816	7.97977	496.02435	733.69867	6.94749	505.71747	-14.29752	1307.94995	-961.75317	
29	0.280	-800.50085	8.81036	-639.01215	769.49341	10.11871	-644.30737	-708.63727	8.00607	496.08646	733.36383	6.95212	505.82166	-14.35021	1307.98157	-961.73724	
30	0.290	-800.51349	8.80138	-638.96979	769.41931	10.11461	-644.36682	-708.68817	8.03855	496.06601	733.37170	6.95579	505.80038	-14.35745	1307.97461	-961.73730	
31	0.300	-800.52466	8.87246	-638.94470	769.57404	10.05247	-644.32471	-708.68567	7.99151	496.03711	733.39441	6.95518	505.79471	-14.37126	1308.00098	-961.74683	
32	0.310	-800.51892	8.76479	-638.99615	769.52136	10.05957	-644.33154	-708.69287	8.04042	496.02094	733.65179	6.96367	505.69467	-14.36407	1308.01062	-961.78345	
33	0.320	-800.50037	8.84525	-638.97125	769.41919	10.09191	-644.38049	-708.67126	8.03485	496.07535	733.41852	7.00562	505.78577	-14.37209	1308.02173	-961.74219	
34	0.330	-800.50934	8.82848	-638.97644	769.55096	10.08506	-644.33954	-708.68372	7.96464	496.06091	733.39294	7.00029	505.78439	-14.36516	1308.02502	-961.76398	
35	0.340	-800.51050	8.81881	-638.96637	769.56091	10.08017	-644.31653	-708.71265	8.03438	496.03671	733.41815	6.99015	505.79611	-14.36570	1308.02563	-961.78973	
36	0.350	-800.52234	8.83476	-638.96490	769.42981	10.07064	-644.36340	-708.70264	8.03866	496.06580	733.40491	7.01042	505.79257	-14.33832	1308.02600	-961.80420	
37	0.360	-800.50433	8.81919	-638.95227	769.44031	10.08198	-644.34906	-708.70239	8.04068	496.00793	733.69354	6.97428	505.66599	-14.30592	1308.04626	-961.81818	
38	0.370	-800.53247	8.83356	-638.98425	769.46332	10.10453	-644.33710	-708.68762	8.03099	496.08688	733.40436	7.02004	505.80719	-14.34984	1308.02258	-961.80511	
39	0.380	-800.51074	8.83678	-638.95056	769.41296	10.11469	-644.34778	-708.76642	8.06149	496.02585	733.44891	6.99077	505.79520	-14.32810	1308.01477	-961.74335	
40	0.390	-800.51563	8.81998	-638.97681	769.44604	10.07364	-644.33978	-708.72266	8.03523	496.01974	733.44116	7.00554	505.80963	-14.31299	1307.99939	-961.74500	
41	0.400	-800.50543	8.76730	-638.96521	769.56213	10.02409	-644.30530	-708.69629	7.97783	496.09006	733.63129	6.92798	505.69302	-14.29555	1307.95349	-961.76282	
42	0.410	-800.53900	8.80653	-638.99371	769.55524	10.03263	-644.29065	-708.67767	8.00324	496.11172	733.37708	6.94030	505.81250	-14.29476	1307.96631	-961.75519	
43	0.420	-800.57178	8.85447	-638.91980	769.54462	10.01068	-644.29498	-708.70154	8.01010	496.02939	733.62195	6.91121	505.70071	-14.30098	1307.95679	-961.75391	
44	0.430	-800.53027	8.86553	-638.95514	769.56824	10.04634	-644.28546	-708.71161	7.99220	496.06473	733.40588	6.96435	505.83218	-14.27088	1307.98486	-961.80853	
45	0.440	-800.54443	8.76279	-638.96735	769.40424	10.08331	-644.38043	-708.67139	7.96591	496.10657	733.58820	6.92172	505.72137	-14.29282	1307.93481	-961.74420	
46	0.450	-800.52606	8.77513	-638.94287	769.55811	10.02321	-644.30316	-708.69647	7.93246	496.08176	733.27527	6.91913	505.84918	-14.28886	1307.94080	-961.77356	
47	0.460	-800.53394	8.79836	-638.95935	769.54633	10.02856	-644.31262	-708.70392	8.00263	496.04611	733.30121	6.90132	505.84265	-14.22830	1307.94617	-961.81061	
48	0.470	-800.53180	8.82672	-638.94537	769.53949	10.04884	-644.33771	-708.67090	8.04914	496.02719	733.62451	6.95337	505.70013	-14.33603	1308.03162	-961.80023	
49	0.480	-800.48236	8.80700	-639.01605	769.60266	10.07817	-644.29803	-708.70477	8.04618	495.99774	733.38428	6.98086	505.83099	-14.33932	1308.03503	-961.74823	
50	0.490	-800.49103	8.78276	-639.03741	769.58868	10.05729	-644.27484	-708.66113	8.07618	496.05289	733.58167	6.94493	505.67310	-14.36053	1308.02747	-961.77692	
51	0.500	-800.51654	8.80649	-638.99725	769.44397	10.06538	-644.36462	-708.67169	8.03544	496.04419	733.40033	6.98846	505.79773	-14.37265	1308.02917	-961.74573	
52	0.510	-800.54187	8.79605	-638.95776	769.56403	10.04466	-644.32813	-708.65656	8.02047	496.06757	733.60034	6.95314	505.68835	-14.39026	1308.02722	-961.74896	
53	0.520	-800.45758	8.76452	-639.04468	769.56525	10.06989	-644.32654	-708.66730	8.01863	495.99890	733.40167	7.00208	505.81717	-14.35458	1307.99011	-961.70673	
54	0.530	-800.50555	8.84727	-638.95117	769.60217	10.06279	-644.29755	-708.64392	8.02443	496.01584	733.62671	6.94861	505.67981	-14.37567	1308.02258	-961.75690	
55	0.540	-800.53998	8.83096	-638.87616	769.52484	10.04391	-644.31683	-708.71277	8.06167	496.06894	733.36938	6.97194	505.81021	-14.38467	1308.01111	-961.72577	
56	0.550	-800.50940	8.82004	-638.92035	769.57831	10.02903	-644.31738	-708.71027	8.02268	496.05066	733.39429	6.96361	505.82138	-14.32888	1307.98901	-961.71564	
57	0.560	-800.52368	8.82533	-638.90454	769.42584	10.07026	-644.34125	-708.66956	7.99920	496.04300	733.29065	6.92562	505.84070	-14.35715	1307.96997	-961.72638	
58	0.570	-800.52826	8.79991	-638.93671	769.54071	10.02520	-644.30359	-708.70599	8.02193	496.04156	733.58716	6.92531	505.71777	-14.29473	1307.97388	-961.77533	
59	0.580	-800.51801	8.79364	-638.94269	769.47540	10.07286	-644.34479	-708.68372	7.99502	496.04620	733.36377	6.95157	505.83112	-14.28658	1307.96045	-961.79523	
60	0.590	-800.54108	8.82197	-638.97009	769.60254	10.04879	-644.28668	-708.65552	8.01302	496.06244	733.42181	6.97706	505.83395	-14.30773	1307.98486	-961.76447	
61	0.600	-800.53748	8.76756	-638.90295	769.53961	10.02670	-644.30054	-708.67200	8.02829	496.08209	733.60803	6.91430	505.70319	-14.33129	1307.96643	-961.74200	
62	0.610	-800.53979	8.77955	-638.97076	769.57184	10.01300	-644.28760	-708.64136	7.97331	496.04813	733.62256	6.90949	505.72040	-14.34455	1307.96753	-961.75763	
63	0.620	-800.55475	8.80578	-638.95319	769.42395	10.07119	-644.31427	-708.70428	7.97709	496.03970	733.32654	6.92238	505.82068	-14.29472	1307.97314	-961.77118	
64	0.630	-800.53339	8.84697	-638.95880	769.57587	10.02599	-644.31213	-708.67010	7.99502	496.09247	733.62524	6.93094	505.70389	-14.32929	1307.98279	-961.76886	
65	0.640	-800.51843	8.82389	-638.93762	769.45929	10.09270	-644.32574	-708.68872	8.03878	496.06702	733.38263	6.98199	505.78796	-14.31232	1307.98523	-961.73431	
66	0.650	-800.52740	8.85550	-638.89325	769.53125	10.05106	-644.31958	-708.68463	8.01818	496.09348	733.31061	6.95472	505.80548	-14.31798	1308.01807	-961.75012	
67	0.660	-800.52063	8.79119	-638.97247	769.56384	10.03836	-644.32391	-708.67542	7.99365	496.08682	733.63745	6.96571	505.68677	-14.38457	1308.01660	-961.76190	
68	0.670	-800.54767	8.82007	-638.96509	769.57452	10.04431	-644.27386	-708.67188	8.01802	496.09869	733.37946	6.97778	505.84103	-14.43846	1308.05078	-961.74976	
69	0.680	-800.52954	8.82230	-638.96857	769.42267	10.10521	-644.37433	-708.69110	8.03313	496.07391	733.39282	6.99471	505.80148	-14.36111	1308.05872	-961.75623	
